<svg xmlns="http://www.w3.org/2000/svg" viewBox="0 0 64 64"><defs><style>.cls-1{fill:#253655;}</style></defs><g id="arrow"><path class="cls-1" d="M49.15,32a1.7,1.7,0,0,0,0-.22,2.25,2.25,0,0,0,0-.22.53.53,0,0,1,0-.12s0-.05-.05-.08a1.18,1.18,0,0,0-.11-.19L48.76,31l0-.07L34.07,16.73A1.5,1.5,0,0,0,32,18.89L44,30.5H16.35a1.5,1.5,0,0,0,0,3H44L32,45.11a1.5,1.5,0,0,0,2.09,2.16L48.71,33.08l0-.07.14-.18a1.18,1.18,0,0,0,.11-.19s0,0,.05-.08a.53.53,0,0,1,0-.12,2.25,2.25,0,0,0,0-.22A1.7,1.7,0,0,0,49.15,32Z"/></g></svg>