<svg xmlns="http://www.w3.org/2000/svg" viewBox="0 0 64 64"><defs><style>.cls-1{fill:#d3d5d8;}.cls-2{fill:#2e4369;}</style></defs><g id="i-shoppingbag"><circle class="cls-1" cx="32" cy="32" r="32"/><path class="cls-2" d="M37,23.46a.76.76,0,0,0-.77.77,7,7,0,1,1-14,0,.77.77,0,1,0-1.53,0,8.53,8.53,0,0,0,17,0A.77.77,0,0,0,37,23.46Z"/><path class="cls-2" d="M48.62,43.56,43,16.25a.69.69,0,0,0-.1-.25,1.47,1.47,0,0,0-1.36-.95H16.81a1.45,1.45,0,0,0-1.45,1.45v3.08h0v1.54h0V47.5A1.45,1.45,0,0,0,16.81,49H41.57a1.44,1.44,0,0,0,1-.42l5.74-4.2A.76.76,0,0,0,48.62,43.56Zm-31.72-27H41.49v3H16.9Zm0,4.53H41.49V47.41H16.9ZM43,46.31V23.86l4,19.53Z"/></g></svg>