<svg id="Layer_1" data-name="Layer 1" xmlns="http://www.w3.org/2000/svg" viewBox="0 0 960 400"><defs><style>.cls-1{fill:#2e4369;}.cls-2{fill:#fff;}.cls-3{fill:#44ee70;}</style></defs><rect class="cls-1" x="0.07" y="0.25" width="960" height="400" rx="30"/><path class="cls-2" d="M481.23,265.36l12.78-4.5c.45,4.41,2.61,6.48,5.94,6.48,4.59,0,7.55-4,7.55-9.27,0-3-1.62-5.22-5.58-5.22h-4.13L499,241.78h3.6c4.86,0,7.38-4.23,7.38-8.28,0-2.87-1.89-4.67-4.31-4.67-3.33,0-5.58,2.15-7.21,5.3l-10.61-6.38c3.42-7.12,11-11.34,19.16-11.34,9.81,0,16.47,4.86,16.47,14.22A18.87,18.87,0,0,1,514.79,247v.09c4.41,2.34,6.93,6.57,6.93,12.51,0,12.42-9.45,20.16-21.59,20.16C489.6,279.76,482.94,273.46,481.23,265.36Z"/><path class="cls-2" d="M567.71,269.14h-7L559.44,279H545.85l1.17-9.81h-22l1-8.46,30-43.55h11l-5,40.31h7.21Zm-15.56-29.07L540.9,258.79h8.82Z"/><path class="cls-2" d="M614.33,279H600.21l5.39-43.82-8.46,6.29-5.76-10.71,19.26-13.58h11.25Z"/><path class="cls-2" d="M625.5,264.82a21.05,21.05,0,0,1,11.69-19.08v-.18c-2.61-1.44-5.13-4.95-5.13-10.17,0-10.89,8.28-19,20.43-19,8.19,0,15.12,4.41,15.12,13.31,0,6.3-3.24,12.87-8.28,15.48v.09c4.5,1.89,7.83,6.3,7.83,13,0,13.68-9.72,21.42-23.58,21.42C633,279.76,625.5,274.18,625.5,264.82ZM653,258.61c0-3.69-1.8-6.75-5.58-6.75-4.59,0-7.83,4.86-7.83,9.45,0,4.14,2.07,6.75,5.58,6.75C649.52,268.06,653,263.74,653,258.61Zm1.89-26c0-3.14-1.53-5.13-4.41-5.13-3.42,0-5.76,3.7-5.76,7.38,0,3.15,1.62,5.31,4.32,5.31C652.4,240.16,654.92,236.47,654.92,232.6Z"/><path class="cls-2" d="M669.86,265.36l12.78-4.5c.45,4.41,2.61,6.48,5.94,6.48,4.59,0,7.56-4,7.56-9.27,0-3-1.62-5.22-5.58-5.22h-4.14l1.26-11.07h3.6c4.86,0,7.38-4.23,7.38-8.28,0-2.87-1.89-4.67-4.32-4.67-3.33,0-5.58,2.15-7.2,5.3l-10.62-6.38c3.42-7.12,11-11.34,19.17-11.34,9.81,0,16.47,4.86,16.47,14.22A18.87,18.87,0,0,1,703.43,247v.09c4.41,2.34,6.93,6.57,6.93,12.51,0,12.42-9.45,20.16-21.6,20.16C678.23,279.76,671.57,273.46,669.86,265.36Z"/><path class="cls-2" d="M755.81,215.06l-3.24,26.72h19l3.24-26.72h14.58L781.46,279H767l3-24.3H751L748,279H733.49l7.83-63.89Z"/><path class="cls-2" d="M796.49,250.33l4.41-35.27h14.4l-4.5,36.44c-1,8.19.36,14.76,7.65,14.76,5.94,0,10.26-3.42,11.52-14l4.59-37.16H849l-4.59,37.52c-2.43,19.8-11.52,27.18-27.09,27.18C800.09,279.76,794.24,268.33,796.49,250.33Z"/><path class="cls-2" d="M899.63,215.06,898,227.92H873l-1.89,15h20.61l-1.44,12.69H869.48L866.69,279H852.56l7.83-63.89Z"/><path class="cls-2" d="M135.19,199.12c2-2.17,4.42-5,4.42-7.79,0-1.42-.71-2.35-2.12-2.35a5.92,5.92,0,0,0-4.43,3l-4.6-3.71a11.88,11.88,0,0,1,10.14-5.67c4.33,0,8.05,2.88,8.05,7.79,0,4.6-2.35,8-5.89,11.68l-4.86,5v.09h8.93l-.79,6.24H125.76l.4-4.47Z"/><path class="cls-2" d="M148,206.46a10.35,10.35,0,0,1,5.75-9.38V197a5.54,5.54,0,0,1-2.52-5c0-5.35,4.07-9.33,10-9.33,4,0,7.44,2.17,7.44,6.55,0,3.09-1.59,6.32-4.07,7.61v0c2.21.93,3.85,3.1,3.85,6.42,0,6.72-4.78,10.53-11.6,10.53C151.65,213.81,148,211.07,148,206.46Zm13.54-3.05c0-1.81-.89-3.32-2.74-3.32-2.26,0-3.85,2.39-3.85,4.65,0,2,1,3.32,2.74,3.32C159.79,208.06,161.52,205.93,161.52,203.41Zm.93-12.79c0-1.55-.75-2.52-2.17-2.52-1.68,0-2.83,1.81-2.83,3.63,0,1.55.8,2.61,2.12,2.61C161.21,194.34,162.45,192.52,162.45,190.62Z"/><path class="cls-2" d="M172.14,191a9.13,9.13,0,0,1,9.12-9.34,7.91,7.91,0,0,1,8.19,8.23,9.17,9.17,0,0,1-9.16,9.38A7.92,7.92,0,0,1,172.14,191Zm12.35-1c0-2.3-1.46-3.81-3.45-3.81s-3.94,2-3.94,4.69c0,2.39,1.46,3.85,3.36,3.85C182.63,194.78,184.49,192.83,184.49,190.05Zm13.14-8.85,4.74,2.16L186,214.52l-4.74-2.17Zm-3.41,24.33a9.13,9.13,0,0,1,9.12-9.33,7.89,7.89,0,0,1,8.19,8.23,9.15,9.15,0,0,1-9.16,9.38A7.92,7.92,0,0,1,194.22,205.53Zm12.35-1a3.47,3.47,0,0,0-3.45-3.8c-2.08,0-3.94,2-3.94,4.69,0,2.39,1.46,3.85,3.36,3.85C204.71,209.3,206.57,207.35,206.57,204.56Z"/><circle class="cls-3" cx="863.08" cy="140.57" r="30"/><polygon class="cls-1" points="881.08 139.37 864.28 139.37 864.28 122.56 861.88 122.56 861.88 139.37 845.08 139.37 845.08 141.76 861.88 141.76 861.88 158.56 864.28 158.56 864.28 141.76 881.08 141.76 881.08 139.37"/><path class="cls-2" d="M366.54,326.36H369l4.43,10.36h.05l4.12-10.36H380l-7.73,19.18H369.9l2.43-6.08Z"/><path class="cls-2" d="M381.15,333.19a7,7,0,1,1,7.06,7A6.8,6.8,0,0,1,381.15,333.19Zm11.76,0a4.72,4.72,0,1,0-4.7,4.9A4.68,4.68,0,0,0,392.91,333.19Z"/><path class="cls-2" d="M398.32,334.48v-8.12h2.27v7.48c0,3.08,1.17,4.25,3.33,4.25S408,336.22,408,333v-6.61h2.27V340H408v-2.36h0a5.31,5.31,0,0,1-4.51,2.52C400.31,340.16,398.32,338.37,398.32,334.48Z"/><path class="cls-2" d="M420.77,338.23l1.15-1.73a5.52,5.52,0,0,0,4.17,1.65c1.66,0,2.61-.81,2.61-1.85,0-1.2-1.26-1.54-3.25-2.27-2.21-.78-4.09-1.68-4.09-4.17,0-2.1,1.91-3.67,4.48-3.67a7.15,7.15,0,0,1,4.71,1.68l-1.18,1.79a5.17,5.17,0,0,0-3.61-1.45c-1.07,0-2.1.61-2.1,1.65s1.09,1.6,2.57,2.13c2.89,1.12,4.79,1.62,4.76,4.28,0,2.13-1.62,3.89-4.9,3.89A7.85,7.85,0,0,1,420.77,338.23Z"/><path class="cls-2" d="M433,333.28c0-4,2.77-7.09,6.64-7.09a5.4,5.4,0,0,1,4.76,2.61l.05,0v-2.41h2.27V340h-2.18v-2.47h0a5.43,5.43,0,0,1-4.87,2.63A6.51,6.51,0,0,1,433,333.28Zm11.54,0c0-2.8-1.88-5-4.57-5a4.7,4.7,0,0,0-4.67,5,4.62,4.62,0,1,0,9.24,0Z"/><path class="cls-2" d="M451.77,326.36l4.17,10.75h0l4.17-10.75h2.44L457,340h-2.18l-5.54-13.64Z"/><path class="cls-2" d="M476.63,333.86H466a4.53,4.53,0,0,0,4.68,4.23,4.88,4.88,0,0,0,3.95-1.82l1.59,1.35a7.08,7.08,0,0,1-12.51-4.43c0-4.11,2.83-7,6.72-7,3.72,0,6.27,2.86,6.27,6.75C476.69,333.3,476.63,333.7,476.63,333.86ZM466.05,332h8.37a4,4,0,0,0-4-3.76A4.32,4.32,0,0,0,466.05,332Z"/><path class="cls-2" d="M479.13,333.28c0-4,2.82-7.09,6.66-7.09a5.57,5.57,0,0,1,4.87,2.61h0v-9.41H493V340h-2.19v-2.52h0a5.54,5.54,0,0,1-4.93,2.68A6.53,6.53,0,0,1,479.13,333.28Zm11.64,0c0-2.8-1.87-5-4.62-5a4.71,4.71,0,0,0-4.7,5,4.66,4.66,0,1,0,9.32,0Z"/><path class="cls-2" d="M505.11,335.94v-7.62h-1.77v-2h1.77v-4.65l2.27-.25v4.9h4.5v2h-4.5v7.28c0,1.65.36,2.44,1.65,2.44a5.15,5.15,0,0,0,2.32-.7l.59,2a5.94,5.94,0,0,1-3.3.84C506.23,340.16,505.11,338.68,505.11,335.94Z"/><path class="cls-2" d="M517.18,319.39v9.35h0a5.82,5.82,0,0,1,5-2.55c2.94,0,5,1.74,5,5.63V340h-2.27v-7.54c0-3.08-1.37-4.2-3.36-4.2-2.71,0-4.39,1.8-4.39,4.88V340h-2.27V319.39Z"/><path class="cls-2" d="M530.84,322.24a1.65,1.65,0,1,1,1.65,1.63A1.63,1.63,0,0,1,530.84,322.24Zm2.77,4.12V340h-2.27V326.36Z"/><path class="cls-2" d="M536.83,338.23,538,336.5a5.51,5.51,0,0,0,4.17,1.65c1.65,0,2.61-.81,2.61-1.85,0-1.2-1.26-1.54-3.25-2.27-2.21-.78-4.09-1.68-4.09-4.17,0-2.1,1.9-3.67,4.48-3.67a7.1,7.1,0,0,1,4.7,1.68l-1.17,1.79a5.17,5.17,0,0,0-3.61-1.45c-1.07,0-2.1.61-2.1,1.65s1.09,1.6,2.57,2.13c2.89,1.12,4.79,1.62,4.76,4.28,0,2.13-1.62,3.89-4.9,3.89A7.83,7.83,0,0,1,536.83,338.23Z"/><path class="cls-2" d="M557,333.28c0-4,2.77-7.09,6.64-7.09a5.4,5.4,0,0,1,4.76,2.61l.05,0v-2.41h2.27V340h-2.18v-2.47h0a5.43,5.43,0,0,1-4.87,2.63A6.51,6.51,0,0,1,557,333.28Zm11.54,0c0-2.8-1.88-5-4.57-5a4.7,4.7,0,0,0-4.67,5,4.62,4.62,0,1,0,9.24,0Z"/><path class="cls-2" d="M577.07,326.36v2.46h0a5.4,5.4,0,0,1,4.56-2.63,4.25,4.25,0,0,1,4.23,2.91h0a5.62,5.62,0,0,1,5-2.91c3,0,4.7,2.07,4.7,6V340h-2.27v-7.23c0-2.91-1-4.51-3.1-4.51s-3.84,1.91-3.84,5V340h-2.27v-7.23c0-2.91-1.12-4.51-3.16-4.51-2.24,0-3.92,1.91-3.92,5V340H574.8V326.36Z"/><path class="cls-2" d="M598.71,333.19a7,7,0,0,1,14.08,0,7,7,0,0,1-14.08,0Zm11.76,0a4.72,4.72,0,1,0-4.7,4.9A4.68,4.68,0,0,0,610.47,333.19Z"/><path class="cls-2" d="M615.88,334.48v-8.12h2.26v7.48c0,3.08,1.18,4.25,3.33,4.25s4.07-1.87,4.07-5.12v-6.61h2.26V340h-2.26v-2.36h0a5.31,5.31,0,0,1-4.51,2.52C617.86,340.16,615.88,338.37,615.88,334.48Z"/><path class="cls-2" d="M634.19,326.36v2.46h0a5.78,5.78,0,0,1,5-2.63c2.94,0,4.9,1.82,4.9,5.71V340H641.8v-7.45c0-3.19-1.37-4.29-3.36-4.29-2.57,0-4.25,1.85-4.25,4.93V340h-2.27V326.36Z"/><path class="cls-2" d="M648.35,335.94v-7.62h-1.76v-2h1.76v-4.65l2.27-.25v4.9h4.51v2h-4.51v7.28c0,1.65.37,2.44,1.65,2.44a5.16,5.16,0,0,0,2.33-.7l.59,2a6,6,0,0,1-3.31.84C649.47,340.16,648.35,338.68,648.35,335.94Z"/><path class="cls-2" d="M665.46,334.48v-8.12h2.27v7.48c0,3.08,1.18,4.25,3.33,4.25s4.06-1.87,4.06-5.12v-6.61h2.27V340h-2.27v-2.36h0a5.28,5.28,0,0,1-4.5,2.52C667.45,340.16,665.46,338.37,665.46,334.48Z"/><path class="cls-2" d="M683.77,326.36v2.46h0a5.78,5.78,0,0,1,5-2.63c2.94,0,4.9,1.82,4.9,5.71V340h-2.27v-7.45c0-3.19-1.37-4.29-3.36-4.29-2.58,0-4.26,1.85-4.26,4.93V340h-2.26V326.36Z"/><path class="cls-2" d="M696.74,333.28c0-4,2.83-7.09,6.66-7.09a5.57,5.57,0,0,1,4.87,2.61h0v-9.41h2.27V340h-2.19v-2.52h0a5.53,5.53,0,0,1-4.93,2.68A6.53,6.53,0,0,1,696.74,333.28Zm11.64,0c0-2.8-1.87-5-4.61-5a4.71,4.71,0,0,0-4.71,5,4.66,4.66,0,1,0,9.32,0Z"/><path class="cls-2" d="M726.87,333.86H716.22a4.53,4.53,0,0,0,4.68,4.23,4.88,4.88,0,0,0,4-1.82l1.6,1.35a7.08,7.08,0,0,1-12.52-4.43c0-4.11,2.83-7,6.72-7,3.72,0,6.27,2.86,6.27,6.75C726.92,333.3,726.87,333.7,726.87,333.86ZM716.28,332h8.37a4,4,0,0,0-4-3.76A4.32,4.32,0,0,0,716.28,332Z"/><path class="cls-2" d="M732.52,326.36v2.49h.06a5.09,5.09,0,0,1,4.42-2.66,3.44,3.44,0,0,1,.56,0v2.52c-.34,0-.67-.06-.89-.06-2.61,0-4.15,2-4.15,4.74V340h-2.27V326.36Z"/><path class="cls-2" d="M753.24,331.65c1.62-1.68,2.91-3.22,2.91-5.12a3.52,3.52,0,0,0-3.61-3.7,4.44,4.44,0,0,0-4.12,2.63l-1.73-1.2a6.3,6.3,0,0,1,6-3.64,5.6,5.6,0,0,1,5.88,5.66c0,2.15-.92,4-3.3,6.44l-5,5,0,.08h8.51V340H746.69l0-1.63Z"/><path class="cls-2" d="M761.78,326.5l-1.15-1.76,5.38-4h2V340h-2.35V323.59Z"/><path class="cls-2" d="M779,338.23l1.15-1.73a5.49,5.49,0,0,0,4.17,1.65c1.65,0,2.6-.81,2.6-1.85,0-1.2-1.26-1.54-3.25-2.27-2.21-.78-4.08-1.68-4.08-4.17,0-2.1,1.9-3.67,4.48-3.67a7.1,7.1,0,0,1,4.7,1.68l-1.18,1.79a5.13,5.13,0,0,0-3.61-1.45,1.89,1.89,0,0,0-2.1,1.65c0,1.06,1.09,1.6,2.58,2.13,2.88,1.12,4.79,1.62,4.76,4.28,0,2.13-1.63,3.89-4.9,3.89A7.81,7.81,0,0,1,779,338.23Z"/><path class="cls-2" d="M794.74,319.39v9.35h0a5.82,5.82,0,0,1,5-2.55c2.94,0,5,1.74,5,5.63V340h-2.27v-7.54c0-3.08-1.37-4.2-3.36-4.2-2.71,0-4.39,1.8-4.39,4.88V340h-2.27V319.39Z"/><path class="cls-2" d="M807.87,333.19a7,7,0,0,1,14.08,0,7,7,0,0,1-14.08,0Zm11.76,0a4.72,4.72,0,1,0-4.71,4.9A4.69,4.69,0,0,0,819.63,333.19Z"/><path class="cls-2" d="M827.61,326.36v2.41h0a5.59,5.59,0,0,1,4.85-2.58c3.86,0,6.64,3.05,6.64,7.09a6.51,6.51,0,0,1-6.64,6.88,5.53,5.53,0,0,1-4.85-2.52h0v7.9h-2.27V326.36Zm9.21,6.92a4.71,4.71,0,0,0-4.68-5c-2.77,0-4.64,2.22-4.64,5a4.66,4.66,0,1,0,9.32,0Z"/><path class="cls-2" d="M844.8,326.36v2.41h0a5.56,5.56,0,0,1,4.84-2.58c3.87,0,6.64,3.05,6.64,7.09a6.51,6.51,0,0,1-6.64,6.88,5.5,5.5,0,0,1-4.84-2.52h0v7.9h-2.27V326.36Zm9.21,6.92a4.71,4.71,0,0,0-4.68-5c-2.77,0-4.64,2.22-4.64,5a4.66,4.66,0,1,0,9.32,0Z"/><path class="cls-2" d="M859.39,322.24a1.65,1.65,0,1,1,1.65,1.63A1.63,1.63,0,0,1,859.39,322.24Zm2.77,4.12V340h-2.27V326.36Z"/><path class="cls-2" d="M868.85,326.36v2.46h0a5.75,5.75,0,0,1,5-2.63c2.94,0,4.9,1.82,4.9,5.71V340h-2.26v-7.45c0-3.19-1.38-4.29-3.36-4.29-2.58,0-4.26,1.85-4.26,4.93V340h-2.27V326.36Z"/><path class="cls-2" d="M883.19,344.22l.56-2a9.16,9.16,0,0,0,4.9,1.43c3.08,0,4.56-1.8,4.56-4.09v-2.19h-.06a5.52,5.52,0,0,1-4.73,2.38,6.78,6.78,0,0,1-.08-13.55,5.92,5.92,0,0,1,4.79,2.35h0v-2.18h2.27V339c0,3.92-2,6.72-6.72,6.72A10.59,10.59,0,0,1,883.19,344.22Zm10.08-11.34a4.58,4.58,0,1,0-4.57,4.76A4.48,4.48,0,0,0,893.27,332.88Z"/><path class="cls-2" d="M64.92,52l7.56,19.88H69.94l-1.8-4.84H59.27L57.5,71.92H55L62.49,52ZM63.72,55h-.06L60.05,65h7.34Z"/><path class="cls-2" d="M74.11,65.12a6.64,6.64,0,0,1,6.89-7,7.2,7.2,0,0,1,5.48,2.44l-1.54,1.37a5,5,0,0,0-3.83-1.74,4.59,4.59,0,0,0-4.68,4.93A4.54,4.54,0,0,0,81.08,70,5,5,0,0,0,85,68.28l1.57,1.43a7,7,0,0,1-5.63,2.38A6.59,6.59,0,0,1,74.11,65.12Z"/><path class="cls-2" d="M91.83,51.32v9.35h0a5.79,5.79,0,0,1,5-2.55c2.94,0,5,1.74,5,5.63v8.17H99.59V64.39c0-3.08-1.37-4.2-3.36-4.2-2.72,0-4.4,1.79-4.4,4.87v6.86H89.56V51.32Z"/><path class="cls-2" d="M105.5,54.17a1.65,1.65,0,1,1,1.65,1.63A1.63,1.63,0,0,1,105.5,54.17Zm2.77,4.12V71.92H106V58.29Z"/><path class="cls-2" d="M113.67,58.29,117.84,69h0L122,58.29h2.44l-5.54,13.63h-2.19l-5.54-13.63Z"/><path class="cls-2" d="M138.54,65.79H127.9A4.52,4.52,0,0,0,132.57,70a4.88,4.88,0,0,0,4-1.82l1.6,1.34a7.08,7.08,0,0,1-12.52-4.42c0-4.12,2.83-7,6.72-7,3.72,0,6.27,2.86,6.27,6.75C138.59,65.23,138.54,65.63,138.54,65.79ZM128,63.94h8.37a4,4,0,0,0-4-3.75A4.32,4.32,0,0,0,128,63.94Z"/><path class="cls-2" d="M148,58.29h2.46l4.43,10.36H155l4.12-10.36h2.38l-7.73,19.18h-2.35l2.43-6.08Z"/><path class="cls-2" d="M162.64,65.12a7,7,0,1,1,7.06,7A6.8,6.8,0,0,1,162.64,65.12Zm11.76,0a4.72,4.72,0,1,0-4.7,4.9A4.68,4.68,0,0,0,174.4,65.12Z"/><path class="cls-2" d="M179.81,66.41V58.29h2.26v7.47c0,3.08,1.18,4.26,3.34,4.26s4.06-1.87,4.06-5.12V58.29h2.26V71.92h-2.26V69.57h0a5.31,5.31,0,0,1-4.51,2.52C181.79,72.09,179.81,70.3,179.81,66.41Z"/><path class="cls-2" d="M198.12,58.29v2.49h0a5.09,5.09,0,0,1,4.43-2.66,3.57,3.57,0,0,1,.56,0v2.52c-.34,0-.67-.06-.9-.06-2.6,0-4.14,2-4.14,4.73v6.58h-2.27V58.29Z"/><path class="cls-2" d="M213.83,76.15l.56-2a9.16,9.16,0,0,0,4.9,1.42c3.08,0,4.56-1.79,4.56-4.08V69.29h-.06a5.52,5.52,0,0,1-4.73,2.38,6.44,6.44,0,0,1-6.61-6.75,6.45,6.45,0,0,1,6.53-6.8,5.92,5.92,0,0,1,4.79,2.35h0V58.29h2.27V70.92c0,3.92-2,6.72-6.72,6.72A10.59,10.59,0,0,1,213.83,76.15Zm10.08-11.34a4.58,4.58,0,1,0-4.57,4.76A4.48,4.48,0,0,0,223.91,64.81Z"/><path class="cls-2" d="M229.28,65.12a7,7,0,1,1,7.06,7A6.8,6.8,0,0,1,229.28,65.12Zm11.76,0a4.72,4.72,0,1,0-4.7,4.9A4.68,4.68,0,0,0,241,65.12Z"/><path class="cls-2" d="M245.86,65.21c0-4,2.77-7.09,6.63-7.09a5.4,5.4,0,0,1,4.76,2.6l.06,0V58.29h2.27V71.92h-2.19V69.46h0a5.45,5.45,0,0,1-4.88,2.63A6.5,6.5,0,0,1,245.86,65.21Zm11.53,0c0-2.81-1.87-5-4.56-5a4.71,4.71,0,0,0-4.68,5,4.62,4.62,0,1,0,9.24,0Z"/><path class="cls-2" d="M266.1,51.32v20.6h-2.27V51.32Z"/><path class="cls-2" d="M269.32,70.16l1.15-1.74a5.48,5.48,0,0,0,4.17,1.66c1.65,0,2.61-.82,2.61-1.85C277.25,67,276,66.69,274,66c-2.21-.78-4.09-1.68-4.09-4.17,0-2.1,1.9-3.67,4.48-3.67a7.1,7.1,0,0,1,4.7,1.68l-1.17,1.79a5.17,5.17,0,0,0-3.61-1.45c-1.07,0-2.1.61-2.1,1.65s1.09,1.59,2.57,2.13c2.89,1.12,4.79,1.62,4.76,4.28,0,2.13-1.62,3.89-4.9,3.89A7.83,7.83,0,0,1,269.32,70.16Z"/><path class="cls-2" d="M88.71,324.34l.82-1.24a3.92,3.92,0,0,0,3,1.18c1.18,0,1.86-.58,1.86-1.32s-.9-1.1-2.32-1.62c-1.58-.56-2.92-1.2-2.92-3,0-1.5,1.36-2.62,3.2-2.62a5.07,5.07,0,0,1,3.36,1.2l-.84,1.28a3.68,3.68,0,0,0-2.58-1,1.35,1.35,0,0,0-1.5,1.18c0,.76.78,1.14,1.84,1.52,2.06.8,3.42,1.16,3.4,3.06,0,1.52-1.16,2.78-3.5,2.78A5.6,5.6,0,0,1,88.71,324.34Z"/><path class="cls-2" d="M98.09,321.66v-5.8h1.62v5.34c0,2.2.84,3,2.38,3s2.9-1.34,2.9-3.66v-4.72h1.62v9.74H105v-1.68h0a3.79,3.79,0,0,1-3.22,1.8C99.51,325.72,98.09,324.44,98.09,321.66Z"/><path class="cls-2" d="M111.17,315.86v1.76h0a3.87,3.87,0,0,1,3.26-1.88,3,3,0,0,1,3,2.08h0a4,4,0,0,1,3.58-2.08c2.16,0,3.36,1.48,3.36,4.26v5.6h-1.62v-5.16c0-2.08-.74-3.22-2.22-3.22s-2.74,1.36-2.74,3.54v4.84h-1.62v-5.16c0-2.08-.8-3.22-2.26-3.22s-2.8,1.36-2.8,3.54v4.84h-1.62v-9.74Z"/><path class="cls-2" d="M128.87,315.86v1.76h0a3.87,3.87,0,0,1,3.26-1.88,3,3,0,0,1,3,2.08h0a4,4,0,0,1,3.58-2.08c2.16,0,3.36,1.48,3.36,4.26v5.6h-1.62v-5.16c0-2.08-.74-3.22-2.22-3.22s-2.74,1.36-2.74,3.54v4.84h-1.62v-5.16c0-2.08-.8-3.22-2.26-3.22s-2.8,1.36-2.8,3.54v4.84h-1.62v-9.74Z"/><path class="cls-2" d="M153.57,321.22H146a3.23,3.23,0,0,0,3.34,3,3.49,3.49,0,0,0,2.82-1.3l1.14,1a5,5,0,1,1-4.14-8.16c2.66,0,4.48,2,4.48,4.82C153.61,320.82,153.57,321.1,153.57,321.22ZM146,319.9h6a2.85,2.85,0,0,0-2.88-2.68A3.08,3.08,0,0,0,146,319.9Z"/><path class="cls-2" d="M157.61,315.86v1.78h0a3.63,3.63,0,0,1,3.16-1.9,2.68,2.68,0,0,1,.4,0v1.8l-.64,0c-1.86,0-3,1.42-3,3.38v4.7H156v-9.74Z"/><path class="cls-2" d="M169.19,315.86l3,7.68h0l3-7.68h1.74l-4,9.74h-1.56l-4-9.74Z"/><path class="cls-2" d="M177.71,320.8a4.77,4.77,0,0,1,4.74-5.06,3.86,3.86,0,0,1,3.4,1.86l0,0v-1.72h1.62v9.74H186v-1.76h0a3.89,3.89,0,0,1-3.48,1.88A4.65,4.65,0,0,1,177.71,320.8Zm8.24,0a3.31,3.31,0,1,0-6.6,0,3.3,3.3,0,1,0,6.6,0Z"/><path class="cls-2" d="M189.8,320.74a4.75,4.75,0,0,1,4.93-5,5.16,5.16,0,0,1,3.92,1.74l-1.1,1a3.59,3.59,0,0,0-2.74-1.24,3.51,3.51,0,0,0,0,7,3.58,3.58,0,0,0,2.78-1.24l1.12,1a5,5,0,0,1-4,1.7A4.71,4.71,0,0,1,189.8,320.74Z"/><path class="cls-2" d="M200.21,320.8a4.77,4.77,0,0,1,4.74-5.06,3.86,3.86,0,0,1,3.4,1.86l0,0v-1.72H210v9.74h-1.56v-1.76h0a3.89,3.89,0,0,1-3.48,1.88A4.65,4.65,0,0,1,200.21,320.8Zm8.24,0a3.31,3.31,0,1,0-6.6,0,3.3,3.3,0,1,0,6.6,0Z"/><path class="cls-2" d="M213.14,322.7v-5.44h-1.26v-1.4h1.26v-3.32l1.63-.18v3.5H218v1.4h-3.22v5.2c0,1.18.26,1.74,1.18,1.74a3.66,3.66,0,0,0,1.66-.5l.42,1.42a4.25,4.25,0,0,1-2.36.6C213.94,325.72,213.14,324.66,213.14,322.7Z"/><path class="cls-2" d="M219.84,312.92a1.19,1.19,0,1,1,1.18,1.16A1.17,1.17,0,0,1,219.84,312.92Zm2,2.94v9.74h-1.62v-9.74Z"/><path class="cls-2" d="M224.36,320.74a5,5,0,1,1,5,5A4.86,4.86,0,0,1,224.36,320.74Zm8.41,0a3.38,3.38,0,1,0-3.36,3.5A3.35,3.35,0,0,0,232.77,320.74Z"/><path class="cls-2" d="M238.46,315.86v1.76h0a4.14,4.14,0,0,1,3.55-1.88c2.1,0,3.5,1.3,3.5,4.08v5.78h-1.62v-5.32c0-2.28-1-3.06-2.4-3.06-1.84,0-3,1.32-3,3.52v4.86h-1.62v-9.74Z"/><path class="cls-2" d="M131.52,339.86v1.72h0a4,4,0,0,1,3.46-1.84,4.77,4.77,0,0,1,4.74,5.06,4.65,4.65,0,0,1-4.74,4.92,4,4,0,0,1-3.46-1.8h0v5.64H129.9v-13.7Zm6.58,4.94a3.34,3.34,0,1,0-6.66,0,3.33,3.33,0,1,0,6.66,0Z"/><path class="cls-2" d="M143.8,339.86v1.78h0a3.63,3.63,0,0,1,3.16-1.9,2.68,2.68,0,0,1,.4,0v1.8l-.64,0c-1.86,0-3,1.42-3,3.38v4.7h-1.62v-9.74Z"/><path class="cls-2" d="M148.3,344.74a5,5,0,1,1,5,5A4.85,4.85,0,0,1,148.3,344.74Zm8.4,0a3.37,3.37,0,1,0-3.36,3.5A3.35,3.35,0,0,0,156.7,344.74Z"/><path class="cls-2" d="M161.12,352.63l.4-1.45a6.53,6.53,0,0,0,3.5,1c2.2,0,3.26-1.29,3.26-2.93v-1.56h0a4,4,0,0,1-3.38,1.7,4.84,4.84,0,0,1-.06-9.68,4.21,4.21,0,0,1,3.42,1.68h0v-1.56h1.62v9c0,2.8-1.4,4.8-4.8,4.8A7.56,7.56,0,0,1,161.12,352.63Zm7.2-8.11a3.27,3.27,0,1,0-3.26,3.4A3.2,3.2,0,0,0,168.32,344.52Z"/><path class="cls-2" d="M174.4,339.86v1.78h0a3.63,3.63,0,0,1,3.16-1.9,2.68,2.68,0,0,1,.4,0v1.8l-.64,0c-1.86,0-3,1.42-3,3.38v4.7h-1.62v-9.74Z"/><path class="cls-2" d="M188.14,345.22h-7.6a3.23,3.23,0,0,0,3.34,3,3.49,3.49,0,0,0,2.82-1.3l1.14,1a5,5,0,1,1-4.14-8.16c2.66,0,4.48,2,4.48,4.82C188.18,344.82,188.14,345.1,188.14,345.22Zm-7.56-1.32h6a2.85,2.85,0,0,0-2.88-2.68A3.08,3.08,0,0,0,180.58,343.9Z"/><path class="cls-2" d="M189.69,348.34l.82-1.24a4,4,0,0,0,3,1.18c1.18,0,1.86-.58,1.86-1.32s-.9-1.1-2.32-1.62c-1.58-.56-2.92-1.2-2.92-3,0-1.5,1.36-2.62,3.2-2.62a5.07,5.07,0,0,1,3.36,1.2l-.84,1.28a3.68,3.68,0,0,0-2.58-1,1.35,1.35,0,0,0-1.5,1.18c0,.76.78,1.14,1.84,1.52,2.06.8,3.42,1.16,3.4,3.06,0,1.52-1.16,2.78-3.5,2.78A5.62,5.62,0,0,1,189.69,348.34Z"/><path class="cls-2" d="M198.43,348.34l.82-1.24a4,4,0,0,0,3,1.18c1.18,0,1.86-.58,1.86-1.32s-.9-1.1-2.32-1.62c-1.58-.56-2.93-1.2-2.93-3,0-1.5,1.36-2.62,3.21-2.62a5.07,5.07,0,0,1,3.36,1.2l-.84,1.28a3.68,3.68,0,0,0-2.58-1,1.35,1.35,0,0,0-1.5,1.18c0,.76.78,1.14,1.84,1.52,2.06.8,3.42,1.16,3.4,3.06,0,1.52-1.16,2.78-3.5,2.78A5.64,5.64,0,0,1,198.43,348.34Z"/><path class="cls-2" d="M235.79,258.18l.07-.08a90.31,90.31,0,0,0,8.81-12.4h0c1-1.77,2-3.56,2.94-5.4L232.34,233a72.69,72.69,0,1,1-64.9-105.45h0V110.66h0a89.61,89.61,0,0,0-88.56,76c-.45,3-.76,6-.92,9-.07,1.53-.11,3.07-.11,4.61a90.34,90.34,0,0,0,1,13.65c.11.74.24,1.48.37,2.21a85.93,85.93,0,0,0,2,8.67,89.63,89.63,0,0,0,86.19,65.07h0c1,0,1.93,0,2.89-.05l.81,0,2.37-.13.58,0c.95-.07,1.89-.15,2.83-.25l.69-.08c.76-.09,1.51-.18,2.26-.29l.74-.1,2.79-.45.36-.07c.82-.15,1.63-.32,2.44-.49l.75-.16c.83-.19,1.67-.38,2.5-.59a2.27,2.27,0,0,1,.25-.06c.91-.24,1.82-.49,2.72-.75l.64-.19,2.24-.7.52-.17c.89-.3,1.78-.61,2.66-.94l.4-.15c.77-.29,1.52-.58,2.28-.89l.56-.23c1.75-.73,3.47-1.5,5.16-2.34l.49-.24c.79-.39,1.57-.8,2.35-1.21l.16-.09c.85-.46,1.7-.93,2.53-1.42l.31-.18q1.13-.66,2.22-1.35l.31-.19c1.64-1,3.24-2.12,4.8-3.26l.29-.21q2.35-1.73,4.59-3.6l.18-.15c.74-.63,1.47-1.26,2.19-1.91h0q2.24-2,4.33-4.18l.1-.09Q233.86,260.46,235.79,258.18Z"/><path class="cls-3" d="M167.44,127.57A72.71,72.71,0,0,1,232.34,233l15.27,7.28c.37-.75.74-1.51,1.09-2.27v0a88.73,88.73,0,0,0,4.5-11.77l.09-.29c.2-.69.4-1.38.59-2.08,0-.14.08-.28.11-.42.18-.67.35-1.35.52-2,0-.14.07-.28.1-.42.18-.74.34-1.48.5-2.23,0-.07,0-.13,0-.19.34-1.65.64-3.3.89-5,0-.18.05-.36.07-.54.1-.63.18-1.26.26-1.9l.09-.79c.06-.56.12-1.12.17-1.68,0-.29.06-.58.08-.87q.07-.83.12-1.65l.06-.88c0-.59.05-1.17.08-1.76,0-.25,0-.51,0-.76,0-.84,0-1.68,0-2.53a89.19,89.19,0,0,0-19.76-56.12c-.52-.65-1-1.28-1.58-1.91-.7-.82-1.41-1.63-2.14-2.43-.87-1-1.77-1.9-2.69-2.82l-.07-.07a89.28,89.28,0,0,0-63.36-26.24Z"/></svg>